HIERARCHY
ROOT Hips
{
	OFFSET -0.001795 -0.223333 0.028219
	CHANNELS 6 Xposition Yposition Zposition Zrotation Yrotation Xrotation 
	JOINT LeftUpLeg
	{
		OFFSET 0.069520 -0.091406 -0.006815
		CHANNELS 3 Zrotation Yrotation Xrotation
		JOINT LeftLeg
		{
			OFFSET 0.034277 -0.375199 -0.004496
			CHANNELS 3 Zrotation Yrotation Xrotation
			JOINT LeftFoot
			{
				OFFSET -0.013596 -0.397961 -0.043693
				CHANNELS 3 Zrotation Yrotation Xrotation
				JOINT LeftToe
				{
					OFFSET 0.026358 -0.055791 0.119288
					CHANNELS 3 Zrotation Yrotation Xrotation
					End Site
					{
						OFFSET 0.000000 0.000000 0.000000
					}
				}
			}
		}
	}
	JOINT RightUpLeg
	{
		OFFSET -0.067670 -0.090522 -0.004320
		CHANNELS 3 Zrotation Yrotation Xrotation
		JOINT RightLeg
		{
			OFFSET -0.038290 -0.382569 -0.008850
			CHANNELS 3 Zrotation Yrotation Xrotation
			JOINT RightFoot
			{
				OFFSET 0.015774 -0.398415 -0.042312
				CHANNELS 3 Zrotation Yrotation Xrotation
				JOINT RightToe
				{
					OFFSET -0.025372 -0.048144 0.123348
					CHANNELS 3 Zrotation Yrotation Xrotation
					End Site
					{
						OFFSET 0.000000 0.000000 0.000000
					}
				}
			}
		}
	}
	JOINT Spine
	{
		OFFSET -0.002533 0.108963 -0.026696
		CHANNELS 3 Zrotation Yrotation Xrotation
		JOINT Spine1
		{
			OFFSET 0.005487 0.135180 0.001092
			CHANNELS 3 Zrotation Yrotation Xrotation
			JOINT Spine2
			{
				OFFSET 0.001457 0.052922 0.025425
				CHANNELS 3 Zrotation Yrotation Xrotation
				JOINT Neck
				{
					OFFSET -0.002778 0.213870 -0.042857
					CHANNELS 3 Zrotation Yrotation Xrotation
					JOINT Head
					{
						OFFSET 0.005152 0.064970 0.051349
						CHANNELS 3 Zrotation Yrotation Xrotation
						End Site
						{
							OFFSET 0.000000 0.000000 0.000000
						}
					}
				}
				JOINT LeftShoulder
				{
					OFFSET 0.078845 0.121749 -0.034090
					CHANNELS 3 Zrotation Yrotation Xrotation
					JOINT LeftArm
					{
						OFFSET 0.090977 0.030469 -0.008868
						CHANNELS 3 Zrotation Yrotation Xrotation
						JOINT LeftForeArm
						{
							OFFSET 0.259612 -0.012772 -0.027456
							CHANNELS 3 Zrotation Yrotation Xrotation
							JOINT LeftHand
							{
								OFFSET 0.249234 0.008986 -0.001171
								CHANNELS 3 Zrotation Yrotation Xrotation
								End Site
								{
									OFFSET 0.000000 0.000000 0.000000
								}
							}
						}
					}
				}
				JOINT RightShoulder
				{
					OFFSET -0.081759 0.118833 -0.038615
					CHANNELS 3 Zrotation Yrotation Xrotation
					JOINT RightArm
					{
						OFFSET -0.096012 0.032551 -0.009143
						CHANNELS 3 Zrotation Yrotation Xrotation
						JOINT RightForeArm
						{
							OFFSET -0.253742 -0.013329 -0.021401
							CHANNELS 3 Zrotation Yrotation Xrotation
							JOINT RightHand
							{
								OFFSET -0.255298 0.007772 -0.005559
								CHANNELS 3 Zrotation Yrotation Xrotation
								End Site
								{
									OFFSET 0.000000 0.000000 0.000000
								}
							}
						}
					}
				}
			}
		}
	}
}
MOTION
Frames: 18
Frame Time: 0.050000
-0.017150 0.958219 -0.054898 -0.125608 15.065103 14.949819 5.840585 -1.152560 -14.121156 1.617667 -0.106153 -0.500431 0.248025 6.702209 11.689577 0.000000 0.000000 0.000000 -0.829675 1.326689 -17.458908 -8.814090 0.300114 -5.906750 6.076131 6.149825 19.238164 0.000000 0.000000 0.000000 3.695529 -0.541266 3.815861 0.887353 -0.195755 -3.466125 -9.535482 3.801975 4.521012 18.714117 -9.478064 -14.946130 0.000000 0.000000 0.000000 3.289246 -27.320998 8.515620 -34.121411 -35.661317 4.762365 -7.342460 -45.898210 3.146167 0.000000 0.000000 0.000000 -6.167073 16.893865 5.556873 46.105391 20.582254 4.696694 24.117134 52.192165 16.134237 0.000000 0.000000 0.000000 
-0.020380 0.958850 -0.057759 0.063740 16.809389 15.148362 5.897677 -1.283536 -15.423280 1.961200 -0.169490 0.264749 -0.898453 5.305757 12.196722 0.000000 0.000000 0.000000 -0.923843 1.280727 -17.786150 -8.756792 0.342856 -5.669003 4.717426 4.223250 19.168343 0.000000 0.000000 0.000000 3.803955 -0.652649 4.891410 0.499617 -0.019411 -3.558233 -9.876512 4.314005 4.289135 19.347537 -10.003149 -14.365330 0.000000 0.000000 0.000000 4.485017 -29.463514 9.050513 -29.015464 -40.094401 4.339594 -0.447843 -39.484272 0.305546 0.000000 0.000000 0.000000 -6.334718 19.382333 6.463514 43.907983 23.840929 5.730528 18.191662 51.136185 12.798103 0.000000 0.000000 0.000000 
-0.022840 0.958748 -0.059476 0.509976 18.420294 15.754474 5.576469 -1.425765 -16.477610 2.355162 -0.215627 0.585673 -2.009122 3.748444 12.247722 0.000000 0.000000 0.000000 -1.330142 1.190900 -18.102441 -8.821840 0.394730 -5.381913 3.711124 2.910516 18.978728 0.000000 0.000000 0.000000 3.764408 -0.712677 5.460635 0.347839 0.031806 -3.346359 -10.343164 4.887291 4.317342 19.847547 -10.331438 -14.129041 0.000000 0.000000 0.000000 4.843684 -29.807784 9.092542 -26.071991 -41.904437 3.676165 2.078873 -38.333425 -0.675502 0.000000 0.000000 0.000000 -6.503210 20.275986 6.813279 43.184985 24.725987 6.076372 15.694545 50.473059 11.474614 0.000000 0.000000 0.000000 
-0.024312 0.959067 -0.059923 1.223997 19.788735 16.750091 5.222992 -1.620489 -17.916100 2.769110 -0.268467 0.949091 -3.201666 2.244244 12.727562 0.000000 0.000000 0.000000 -1.989343 1.067504 -18.682291 -8.684704 0.409059 -5.284210 2.469877 1.028881 19.283742 0.000000 0.000000 0.000000 3.781847 -0.766807 5.826695 0.070014 0.160686 -3.511144 -10.822655 6.169726 4.638050 20.428407 -10.380607 -14.698571 0.000000 0.000000 0.000000 3.965996 -30.090452 9.114384 -25.019948 -41.607690 3.216534 0.809981 -41.239091 -0.566899 0.000000 0.000000 0.000000 -6.928801 20.136686 6.731182 43.068309 23.927759 5.947243 14.969504 51.927481 11.823495 0.000000 0.000000 0.000000 
-0.025092 0.958827 -0.059983 1.896496 21.432569 17.729093 4.857996 -1.792281 -18.871853 2.761388 -0.232431 0.495053 -3.911075 1.748538 13.494771 0.000000 0.000000 0.000000 -2.467519 0.942224 -19.128466 -9.318123 0.452731 -5.286630 1.623533 -0.078370 19.403000 0.000000 0.000000 0.000000 3.995179 -0.848297 6.167481 -0.247441 0.273243 -3.316614 -11.613064 6.687887 4.898246 21.394760 -10.788033 -15.150405 0.000000 0.000000 0.000000 3.141270 -29.247709 8.807770 -26.005443 -40.265435 3.256043 -3.153751 -47.522909 0.523008 0.000000 0.000000 0.000000 -6.035039 18.789438 6.547480 42.293077 21.419385 4.849521 17.262001 54.191317 14.048838 0.000000 0.000000 0.000000 
-0.025414 0.959118 -0.060402 2.802049 22.822869 19.148676 4.171642 -2.020242 -20.003024 2.842733 -0.204156 0.043585 -4.617227 0.968504 13.767622 0.000000 0.000000 0.000000 -3.098600 0.773264 -20.310851 -9.903642 0.535187 -4.951768 0.948782 -1.000032 19.862904 0.000000 0.000000 0.000000 3.714654 -0.853811 6.402664 0.081318 0.183324 -3.876874 -12.105800 7.297531 5.960074 21.477694 -9.920152 -17.198192 0.000000 0.000000 0.000000 1.753382 -28.451229 8.447478 -28.149417 -38.629856 3.526066 -9.735796 -53.659155 3.246014 0.000000 0.000000 0.000000 -5.619957 17.620562 6.275255 41.298904 19.132752 3.819555 17.964412 55.895080 15.380528 0.000000 0.000000 0.000000 
-0.025540 0.959305 -0.061778 3.420954 23.560181 20.324166 3.956540 -2.222245 -21.165661 2.472974 -0.155447 -0.294944 -4.449496 1.602439 14.165097 0.000000 0.000000 0.000000 -3.499449 0.645996 -21.280635 -10.449882 0.563581 -4.953265 0.750285 -1.215850 20.140477 0.000000 0.000000 0.000000 3.587086 -0.864406 6.529489 0.268380 0.097034 -3.805969 -12.529950 7.783583 6.263736 22.258704 -9.793507 -18.624924 0.000000 0.000000 0.000000 1.027711 -28.447171 8.342602 -30.581890 -37.967919 3.975911 -16.096291 -56.657129 6.407703 0.000000 0.000000 0.000000 -5.570903 17.298824 6.225188 39.543333 18.352526 3.288068 14.341676 56.196235 13.641778 0.000000 0.000000 0.000000 
-0.025682 0.959918 -0.063943 3.872616 24.028816 21.098287 3.415697 -2.413914 -22.052808 2.631225 -0.170749 -0.188257 -4.466235 1.539455 13.959811 0.000000 0.000000 0.000000 -3.731751 0.556742 -21.902261 -10.720970 0.561385 -5.061991 0.643734 -1.469765 21.205284 0.000000 0.000000 0.000000 3.686312 -0.952933 7.143041 0.361678 0.122556 -4.528658 -12.689478 7.834139 7.244544 22.289586 -9.129499 -20.311613 0.000000 0.000000 0.000000 0.379072 -29.441598 8.598007 -31.750051 -39.402516 4.443064 -15.097615 -56.840312 5.970374 0.000000 0.000000 0.000000 -6.198042 18.056092 6.355655 37.856880 19.582219 3.447331 5.028523 53.540149 7.977528 0.000000 0.000000 0.000000 
-0.025872 0.960889 -0.066366 4.457223 24.366116 21.760081 2.977596 -2.615188 -22.979861 2.308373 -0.167446 0.138312 -4.282833 1.977778 14.077771 0.000000 0.000000 0.000000 -4.309151 0.404919 -22.302469 -10.549105 0.533022 -5.215834 0.697507 -1.325845 21.343759 0.000000 0.000000 0.000000 3.670652 -0.991685 7.468870 0.633152 0.014577 -4.530274 -13.129429 7.595480 7.046234 22.200747 -8.812952 -20.847791 0.000000 0.000000 0.000000 1.035186 -32.081806 9.451228 -31.193633 -43.335515 4.877433 -6.972759 -53.227324 1.967093 0.000000 0.000000 0.000000 -7.221661 20.390438 6.999110 34.633282 22.209110 3.817265 -3.167764 47.233593 2.956565 0.000000 0.000000 0.000000 
-0.026169 0.961527 -0.068381 4.754737 24.683665 21.966954 2.671396 -2.709364 -23.348282 2.612701 -0.210135 0.504941 -4.236193 2.097159 14.061282 0.000000 0.000000 0.000000 -4.573186 0.345729 -22.304945 -10.370097 0.496678 -5.417022 0.521789 -1.603093 21.698169 0.000000 0.000000 0.000000 4.044799 -1.085733 7.682848 0.734356 -0.053390 -4.240734 -13.144968 6.990787 6.774229 22.287491 -9.520654 -19.236187 0.000000 0.000000 0.000000 1.950312 -35.006499 10.432373 -27.661675 -47.971229 4.401097 2.856334 -47.545928 -1.905825 0.000000 0.000000 0.000000 -8.766210 23.734781 7.805567 30.756020 25.648407 4.199044 -9.484888 38.386499 -0.202213 0.000000 0.000000 0.000000 
-0.026611 0.961847 -0.069728 4.869384 24.296264 21.867038 2.683914 -2.732365 -23.577846 2.549295 -0.255091 1.249988 -4.232406 2.335207 14.554842 0.000000 0.000000 0.000000 -4.907754 0.311675 -22.117549 -9.706339 0.470118 -5.379587 0.591721 -1.546885 21.553458 0.000000 0.000000 0.000000 4.224051 -1.169836 8.186738 0.501308 0.013044 -3.982914 -12.971479 6.813161 6.190612 22.012002 -9.860597 -17.941774 0.000000 0.000000 0.000000 4.313349 -37.165719 11.032424 -21.883702 -52.983596 2.486082 10.868757 -39.962481 -3.973444 0.000000 0.000000 0.000000 -11.468874 26.591118 7.967571 26.603943 29.995746 4.702365 -11.221648 28.814664 -0.879020 0.000000 0.000000 0.000000 
-0.027032 0.961551 -0.070335 4.682650 24.052657 21.209185 2.693178 -2.699597 -23.498433 2.839364 -0.343918 2.165004 -4.407913 1.616357 13.930523 0.000000 0.000000 0.000000 -5.094648 0.318462 -21.625516 -9.477210 0.455469 -5.410561 0.842337 -1.205749 21.512833 0.000000 0.000000 0.000000 4.299946 -1.223502 8.590051 0.074341 0.098876 -3.042351 -12.614993 6.442356 5.184936 21.098687 -9.743146 -16.671140 0.000000 0.000000 0.000000 5.254705 -38.866343 11.505452 -15.432823 -55.457546 -0.109845 14.183379 -32.234575 -3.780214 0.000000 0.000000 0.000000 -12.945081 29.114492 8.378753 22.773523 32.431687 4.473873 -11.312032 22.609850 -0.859151 0.000000 0.000000 0.000000 
-0.027224 0.960543 -0.069955 4.208781 23.707341 20.727898 3.530556 -2.672326 -23.990868 2.502476 -0.438333 3.824070 -4.404254 0.978172 13.064650 0.000000 0.000000 0.000000 -4.556313 0.447221 -21.647197 -9.087344 0.465161 -5.168891 0.661562 -1.577637 21.460526 0.000000 0.000000 0.000000 4.092512 -1.224117 8.934015 -0.255813 0.226331 -2.957111 -12.080799 7.190495 4.924040 21.235880 -9.954262 -16.310350 0.000000 0.000000 0.000000 5.538896 -39.518054 11.644794 -12.333913 -56.754690 -1.688600 15.458705 -29.158150 -3.658814 0.000000 0.000000 0.000000 -13.303115 29.915569 8.551352 21.444117 33.660582 4.480442 -12.137270 20.794302 -0.937851 0.000000 0.000000 0.000000 
-0.026985 0.959819 -0.068529 4.043692 23.658438 20.206360 4.074004 -2.656142 -24.299546 2.008013 -0.494877 5.207436 -4.194287 0.276090 11.496757 0.000000 0.000000 0.000000 -4.666431 0.424331 -21.748835 -8.378067 0.576165 -3.961042 0.171417 -2.162563 20.017030 0.000000 0.000000 0.000000 3.875441 -1.196955 9.079427 -0.757037 0.421453 -2.832647 -11.764182 7.707651 4.674958 20.484253 -9.506383 -16.061808 0.000000 0.000000 0.000000 3.758263 -39.449713 11.747077 -14.292528 -56.299446 -0.590932 14.816933 -29.731157 -3.596367 0.000000 0.000000 0.000000 -12.021163 29.898516 9.022491 23.467038 33.386276 4.896235 -13.943487 22.707322 -1.302163 0.000000 0.000000 0.000000 
-0.026258 0.958866 -0.066026 3.684373 24.273406 19.988225 4.738283 -2.631115 -24.439340 1.831828 -0.493245 5.429445 -4.757097 -0.695003 11.461801 0.000000 0.000000 0.000000 -4.511267 0.422271 -21.771141 -7.790216 0.620006 -3.266763 -0.148984 -2.512729 19.533915 0.000000 0.000000 0.000000 3.708981 -1.132290 8.730228 -1.115595 0.571178 -2.871037 -11.462127 7.297400 5.123484 19.601181 -8.575675 -16.948511 0.000000 0.000000 0.000000 0.948021 -38.061076 11.517564 -19.499350 -53.112909 2.037360 11.729622 -35.437899 -3.553326 0.000000 0.000000 0.000000 -9.849479 28.686661 9.319819 28.473502 31.814295 5.582940 -16.064245 31.792034 -2.178994 0.000000 0.000000 0.000000 
-0.025387 0.959101 -0.062565 3.587530 24.624666 19.871572 5.053869 -2.513353 -23.757833 1.431521 -0.385950 4.582646 -4.930802 -0.481301 12.161027 0.000000 0.000000 0.000000 -4.729023 0.370825 -21.627921 -7.084077 0.613204 -2.832004 -0.659092 -3.214375 18.773762 0.000000 0.000000 0.000000 3.478739 -1.049935 8.330467 -1.778515 0.858651 -3.150535 -11.604915 8.129110 5.351281 19.596207 -8.761690 -16.340589 0.000000 0.000000 0.000000 -1.740180 -36.297939 10.892720 -26.610392 -47.511347 4.513565 4.138849 -44.502873 -2.081593 0.000000 0.000000 0.000000 -7.139981 25.704237 9.175458 34.332595 27.036418 5.371320 -14.702803 48.898418 -2.052323 0.000000 0.000000 0.000000 
-0.024658 0.958948 -0.058829 3.524261 25.799236 19.748388 5.064826 -2.453239 -23.057206 1.423826 -0.324038 3.708811 -5.480856 -1.481824 11.896740 0.000000 0.000000 0.000000 -4.476155 0.370746 -21.358046 -7.213446 0.720059 -1.963246 -0.595557 -2.857391 18.414835 0.000000 0.000000 0.000000 3.193547 -0.944994 7.740894 -1.972385 0.939988 -3.206457 -11.867563 7.437404 5.558663 18.770958 -8.449963 -15.758227 0.000000 0.000000 0.000000 -5.334908 -32.749299 9.550704 -30.291211 -39.717540 4.948622 -10.801275 -53.351264 4.125769 0.000000 0.000000 0.000000 -5.007883 22.464614 8.570808 38.717539 20.847276 3.987307 1.667576 68.819181 9.387024 0.000000 0.000000 0.000000 
-0.024231 0.959174 -0.055548 3.182329 25.713420 19.406847 5.295324 -2.352630 -22.495561 1.348800 -0.291321 3.318514 -5.358570 -1.024598 12.237639 0.000000 0.000000 0.000000 -4.174818 0.454143 -20.704389 -6.782577 0.649608 -2.305495 -1.212894 -3.894921 18.152048 0.000000 0.000000 0.000000 2.566934 -0.840014 7.721517 -2.082372 1.054633 -4.124913 -11.584160 8.011246 5.822739 18.612924 -7.870264 -16.906343 0.000000 0.000000 0.000000 -5.708133 -29.520071 8.153888 -30.518305 -32.662289 3.821921 -30.797078 -60.321397 15.322497 0.000000 0.000000 0.000000 -4.465959 18.860529 7.253185 39.179056 14.860764 1.994644 73.672685 75.693164 73.278645 0.000000 0.000000 0.000000 
